%TF.GenerationSoftware,Altium Limited,DefaultClient, ()*%
G04 Layer_Color=65535*
%FSLAX26Y26*%
%MOIN*%
%TF.SameCoordinates,28E0FE5E-BC46-41F2-A807-9729679EB8C0*%
%TF.FilePolarity,Positive*%
%TF.FileFunction,Legend,Top*%
%TF.Part,Single*%
G01*
G75*
%TA.AperFunction,NonConductor*%
%ADD27C,0.007874*%
%ADD28C,0.000000*%
%ADD29C,0.005000*%
%ADD30C,0.010000*%
%ADD31C,0.006000*%
D27*
X4863858Y1935709D02*
G03*
X4863858Y1935709I-3937J0D01*
G01*
X4296123Y2034410D02*
G03*
X4296123Y2034410I-3937J0D01*
G01*
X4403475Y2986297D02*
G03*
X4403475Y2986297I-3937J0D01*
G01*
X5126260Y3310591D02*
G03*
X5126260Y3310591I-3937J0D01*
G01*
X5137775Y3795965D02*
G03*
X5137775Y3795965I-3937J0D01*
G01*
X5399527Y2350001D02*
G03*
X5399527Y2350001I-3937J0D01*
G01*
X4534081Y3034983D02*
G03*
X4534081Y3034983I-3937J0D01*
G01*
X5598725Y2047456D02*
G03*
X5598725Y2047456I-3937J0D01*
G01*
X5871215Y2047456D02*
G03*
X5871215Y2047456I-3937J0D01*
G01*
X5399528Y2115000D02*
G03*
X5399528Y2115000I-3937J0D01*
G01*
X5639220Y3947402D02*
G03*
X5639220Y3947402I-3937J0D01*
G01*
X5685514D02*
G03*
X5685514Y3947402I-3937J0D01*
G01*
X4242186Y2060000D02*
X4342186D01*
X4242186Y2360000D02*
X4342186D01*
X4242186Y2060000D02*
Y2360000D01*
X4342186Y2060000D02*
Y2360000D01*
X5370000Y2300000D02*
Y2400000D01*
X5070000Y2300000D02*
Y2400000D01*
Y2300000D02*
X5370000D01*
X5070000Y2400000D02*
X5370000D01*
X5544788Y2073046D02*
X5644788D01*
X5544788Y2373046D02*
X5644788D01*
X5544788Y2073046D02*
Y2373046D01*
X5644788Y2073046D02*
Y2373046D01*
X5817278Y2073046D02*
X5917278D01*
X5817278Y2373046D02*
X5917278D01*
X5817278Y2073046D02*
Y2373046D01*
X5917278Y2073046D02*
Y2373046D01*
X5370000Y2065000D02*
Y2165000D01*
X5070000Y2065000D02*
Y2165000D01*
Y2065000D02*
X5370000D01*
X5070000Y2165000D02*
X5370000D01*
X5409692Y3997402D02*
X5609692D01*
X5409692Y3897402D02*
X5609692D01*
X5409692D02*
Y3997402D01*
X5609692Y3897402D02*
Y3997402D01*
X5707168Y3897402D02*
X5907168D01*
X5707168Y3997402D02*
X5907168D01*
Y3897402D02*
Y3997402D01*
X5707168Y3897402D02*
Y3997402D01*
D28*
X4855390Y3422835D02*
G03*
X4879390Y3422835I12000J0D01*
G01*
D29*
X4828426Y1967204D02*
X4848110D01*
X4631574D02*
X4828426D01*
X4611890D02*
X4631574D01*
X4611890D02*
Y2089252D01*
Y2191614D02*
Y2538070D01*
X4848110D01*
Y1967204D02*
Y2010512D01*
Y2112874D02*
Y2368780D01*
Y2494764D02*
Y2538070D01*
X4631574Y1868780D02*
Y1967204D01*
Y1868780D02*
X4828426D01*
Y1967204D01*
X4292254Y3057950D02*
X4341468D01*
X4292254Y2965824D02*
X4341468D01*
X5211792Y3997008D02*
X5229114D01*
X5211792Y3941890D02*
X5229114D01*
X3463480Y3161562D02*
Y3991484D01*
X3663480D01*
X3463480Y3161562D02*
X3663480D01*
X3863480D02*
X4063480D01*
Y3991484D01*
X3863480D02*
X4063480D01*
X3465000Y2105040D02*
Y2934960D01*
X3665000D01*
X3465000Y2105040D02*
X3665000D01*
X3865000D02*
X4065000D01*
Y2934960D01*
X3865000D02*
X4065000D01*
X5328518Y2928124D02*
Y2945446D01*
X5273400Y2928124D02*
Y2945446D01*
X5085242Y2633556D02*
X5102566D01*
X5085242Y2688674D02*
X5102566D01*
X5495534Y2633556D02*
X5512856D01*
X5495534Y2688674D02*
X5512856D01*
X5180394Y3238938D02*
X5229606D01*
X5180394Y3331064D02*
X5229606D01*
X4322356Y3332000D02*
Y3349324D01*
X4267238Y3332000D02*
Y3349324D01*
X4552356Y3332000D02*
Y3349324D01*
X4497238Y3332000D02*
Y3349324D01*
X4964396Y3941890D02*
X4981718D01*
X4964396Y3997008D02*
X4981718D01*
X4964396Y3742816D02*
X4981718D01*
X4964396Y3797934D02*
X4981718D01*
X5191908Y3724312D02*
X5241122D01*
X5191908Y3816438D02*
X5241122D01*
X5485686Y3728248D02*
X5503008D01*
X5485686Y3783366D02*
X5503008D01*
X4588214Y2963330D02*
X4637428D01*
X4588214Y3055456D02*
X4637428D01*
X4839830Y2909160D02*
Y2926484D01*
X4894948Y2909160D02*
Y2926484D01*
X4608096Y2749978D02*
X4625418D01*
X4608096Y2805096D02*
X4625418D01*
X4313052Y2749978D02*
X4330374D01*
X4313052Y2805096D02*
X4330374D01*
D30*
X5580000Y3230000D02*
X5665416Y3315416D01*
X5580000Y3230000D02*
Y3413682D01*
X5551410Y3586676D02*
X5581410Y3556676D01*
X5521410D02*
X5551410Y3586676D01*
X5605416Y3410078D02*
X5665416Y3470078D01*
X5551410Y3526676D02*
X5581410Y3556676D01*
X5636076Y3528926D02*
X5665000Y3500000D01*
X5581410Y3517198D02*
Y3556676D01*
X5665416Y3470078D02*
Y3500416D01*
X5552916Y3445766D02*
X5636076Y3528926D01*
X5579342Y3414342D02*
X5665000Y3500000D01*
X5552126Y3487916D02*
X5581410Y3517198D01*
X5648810Y3448266D02*
X5665416Y3431660D01*
X5552916Y3440766D02*
Y3445766D01*
Y3440766D02*
X5579342Y3414342D01*
X5551410Y3488632D02*
Y3526676D01*
X5646644Y3373266D02*
X5665416Y3354496D01*
X5605934Y3333266D02*
X5665416Y3392748D01*
X5605416Y3371660D02*
X5665416Y3431660D01*
X5521410Y3416676D02*
X5551410Y3446676D01*
X5665416Y3392748D02*
Y3431660D01*
X5461410Y3438464D02*
X5521410Y3378464D01*
X5519674Y3341676D02*
X5549674Y3371676D01*
X5432654Y3355430D02*
X5491410Y3296676D01*
X5431410Y3315948D02*
X5519810Y3227548D01*
X5431410Y3315948D02*
Y3354186D01*
Y3392826D02*
X5491410Y3332826D01*
X5432654Y3355430D02*
X5448898Y3371676D01*
X5491410Y3296676D02*
Y3332826D01*
X5461410Y3399940D02*
X5519674Y3341676D01*
X5521410Y3378464D02*
Y3416676D01*
Y3518632D02*
X5551410Y3488632D01*
X5521410Y3556676D02*
X5551410Y3526676D01*
X5461410Y3536676D02*
X5551410Y3446676D01*
X5431410Y3506676D02*
X5521410Y3416676D01*
X5431410Y3506676D02*
X5461410Y3536676D01*
X5521410Y3518632D02*
Y3556676D01*
X5431410Y3392826D02*
Y3506676D01*
X5461410Y3399940D02*
Y3438464D01*
X5549674Y3258410D02*
Y3371676D01*
X5665416Y3315416D02*
Y3354496D01*
X5605934Y3295014D02*
X5665416Y3354496D01*
X5605934Y3295014D02*
Y3333266D01*
X5551410Y3259148D02*
Y3446676D01*
Y3408464D02*
Y3446676D01*
X5605416Y3371660D02*
Y3410078D01*
X5519810Y3227548D02*
X5549674Y3257414D01*
X5521410Y3378464D02*
X5551410Y3408464D01*
X5536410Y3384940D02*
X5549674Y3371676D01*
X5519810Y3227548D02*
Y3341540D01*
X5549674Y3258410D02*
X5580000Y3228084D01*
X5124000Y3427981D02*
Y3377997D01*
X5133997Y3368000D01*
X5153990D01*
X5163987Y3377997D01*
Y3427981D01*
X5223968D02*
X5183981D01*
Y3397990D01*
X5203974Y3407987D01*
X5213971D01*
X5223968Y3397990D01*
Y3377997D01*
X5213971Y3368000D01*
X5193977D01*
X5183981Y3377997D01*
X5169786Y3906218D02*
Y3856234D01*
X5179783Y3846237D01*
X5199776D01*
X5209773Y3856234D01*
Y3906218D01*
X5259757Y3846237D02*
Y3906218D01*
X5229766Y3876227D01*
X5269753D01*
X4532000Y3152981D02*
Y3102997D01*
X4541997Y3093000D01*
X4561990D01*
X4571987Y3102997D01*
Y3152981D01*
X4591981Y3142984D02*
X4601977Y3152981D01*
X4621971D01*
X4631968Y3142984D01*
Y3132987D01*
X4621971Y3122990D01*
X4611974D01*
X4621971D01*
X4631968Y3112994D01*
Y3102997D01*
X4621971Y3093000D01*
X4601977D01*
X4591981Y3102997D01*
X4255000Y3154981D02*
Y3104997D01*
X4264997Y3095000D01*
X4284990D01*
X4294987Y3104997D01*
Y3154981D01*
X4354968Y3095000D02*
X4314981D01*
X4354968Y3134987D01*
Y3144984D01*
X4344971Y3154981D01*
X4324977D01*
X4314981Y3144984D01*
X5446000Y2730000D02*
Y2789981D01*
X5475990D01*
X5485987Y2779984D01*
Y2759990D01*
X5475990Y2749994D01*
X5446000D01*
X5465993D02*
X5485987Y2730000D01*
X5505981D02*
X5525974D01*
X5515977D01*
Y2789981D01*
X5505981Y2779984D01*
X5595952Y2730000D02*
X5555964D01*
X5595952Y2769987D01*
Y2779984D01*
X5585955Y2789981D01*
X5565961D01*
X5555964Y2779984D01*
X5036000Y2730000D02*
Y2789981D01*
X5065990D01*
X5075987Y2779984D01*
Y2759990D01*
X5065990Y2749994D01*
X5036000D01*
X5055993D02*
X5075987Y2730000D01*
X5095981D02*
X5115974D01*
X5105977D01*
Y2789981D01*
X5095981Y2779984D01*
X5145964Y2730000D02*
X5165958D01*
X5155961D01*
Y2789981D01*
X5145964Y2779984D01*
X5230658Y3034711D02*
Y3094692D01*
X5260649D01*
X5270645Y3084695D01*
Y3064701D01*
X5260649Y3054704D01*
X5230658D01*
X5250652D02*
X5270645Y3034711D01*
X5290639D02*
X5310632D01*
X5300636D01*
Y3094692D01*
X5290639Y3084695D01*
X5340623D02*
X5350619Y3094692D01*
X5370613D01*
X5380610Y3084695D01*
Y3044708D01*
X5370613Y3034711D01*
X5350619D01*
X5340623Y3044708D01*
Y3084695D01*
X4915000Y3839000D02*
Y3898981D01*
X4944990D01*
X4954987Y3888984D01*
Y3868990D01*
X4944990Y3858994D01*
X4915000D01*
X4934993D02*
X4954987Y3839000D01*
X4974981Y3848997D02*
X4984977Y3839000D01*
X5004971D01*
X5014968Y3848997D01*
Y3888984D01*
X5004971Y3898981D01*
X4984977D01*
X4974981Y3888984D01*
Y3878987D01*
X4984977Y3868990D01*
X5014968D01*
X5439363Y3810445D02*
Y3870425D01*
X5469353D01*
X5479350Y3860428D01*
Y3840435D01*
X5469353Y3830438D01*
X5439363D01*
X5459356D02*
X5479350Y3810445D01*
X5499343Y3860428D02*
X5509340Y3870425D01*
X5529333D01*
X5539330Y3860428D01*
Y3850432D01*
X5529333Y3840435D01*
X5539330Y3830438D01*
Y3820441D01*
X5529333Y3810445D01*
X5509340D01*
X5499343Y3820441D01*
Y3830438D01*
X5509340Y3840435D01*
X5499343Y3850432D01*
Y3860428D01*
X5509340Y3840435D02*
X5529333D01*
X4923074Y4031237D02*
Y4091218D01*
X4953064D01*
X4963061Y4081221D01*
Y4061228D01*
X4953064Y4051231D01*
X4923074D01*
X4943067D02*
X4963061Y4031237D01*
X4983054Y4091218D02*
X5023042D01*
Y4081221D01*
X4983054Y4041234D01*
Y4031237D01*
X5167451Y4027792D02*
Y4087772D01*
X5197442D01*
X5207439Y4077776D01*
Y4057782D01*
X5197442Y4047785D01*
X5167451D01*
X5187445D02*
X5207439Y4027792D01*
X5267419Y4087772D02*
X5247426Y4077776D01*
X5227432Y4057782D01*
Y4037789D01*
X5237429Y4027792D01*
X5257422D01*
X5267419Y4037789D01*
Y4047785D01*
X5257422Y4057782D01*
X5227432D01*
X4839000Y3016000D02*
Y3075981D01*
X4868990D01*
X4878987Y3065984D01*
Y3045990D01*
X4868990Y3035994D01*
X4839000D01*
X4858993D02*
X4878987Y3016000D01*
X4938968Y3075981D02*
X4898981D01*
Y3045990D01*
X4918974Y3055987D01*
X4928971D01*
X4938968Y3045990D01*
Y3025997D01*
X4928971Y3016000D01*
X4908977D01*
X4898981Y3025997D01*
X4558000Y2846000D02*
Y2905981D01*
X4587990D01*
X4597987Y2895984D01*
Y2875990D01*
X4587990Y2865994D01*
X4558000D01*
X4577993D02*
X4597987Y2846000D01*
X4647971D02*
Y2905981D01*
X4617981Y2875990D01*
X4657968D01*
X4263000Y2846000D02*
Y2905981D01*
X4292990D01*
X4302987Y2895984D01*
Y2875990D01*
X4292990Y2865994D01*
X4263000D01*
X4282993D02*
X4302987Y2846000D01*
X4322981Y2895984D02*
X4332977Y2905981D01*
X4352971D01*
X4362968Y2895984D01*
Y2885987D01*
X4352971Y2875990D01*
X4342974D01*
X4352971D01*
X4362968Y2865994D01*
Y2855997D01*
X4352971Y2846000D01*
X4332977D01*
X4322981Y2855997D01*
X4266000Y3439000D02*
Y3498981D01*
X4295990D01*
X4305987Y3488984D01*
Y3468990D01*
X4295990Y3458994D01*
X4266000D01*
X4285993D02*
X4305987Y3439000D01*
X4365968D02*
X4325981D01*
X4365968Y3478987D01*
Y3488984D01*
X4355971Y3498981D01*
X4335977D01*
X4325981Y3488984D01*
X4496000Y3439000D02*
Y3498981D01*
X4525990D01*
X4535987Y3488984D01*
Y3468990D01*
X4525990Y3458994D01*
X4496000D01*
X4515993D02*
X4535987Y3439000D01*
X4555981D02*
X4575974D01*
X4565977D01*
Y3498981D01*
X4555981Y3488984D01*
X4469987Y2369950D02*
Y2389943D01*
Y2379947D01*
X4420003D01*
X4410007Y2389943D01*
Y2399940D01*
X4420003Y2409937D01*
X4400010Y2349956D02*
Y2309969D01*
X4390013Y2289976D02*
X4449994D01*
Y2259985D01*
X4439997Y2249989D01*
X4420003D01*
X4410007Y2259985D01*
Y2289976D01*
Y2219998D02*
Y2200005D01*
X4420003Y2190008D01*
X4439997D01*
X4449994Y2200005D01*
Y2219998D01*
X4439997Y2229995D01*
X4420003D01*
X4410007Y2219998D01*
X4449994Y2170015D02*
X4420003D01*
X4410007Y2160018D01*
X4420003Y2150021D01*
X4410007Y2140024D01*
X4420003Y2130027D01*
X4449994D01*
X4410007Y2080044D02*
Y2100037D01*
X4420003Y2110034D01*
X4439997D01*
X4449994Y2100037D01*
Y2080044D01*
X4439997Y2070047D01*
X4430000D01*
Y2110034D01*
X4449994Y2050053D02*
X4410007D01*
X4430000D01*
X4439997Y2040056D01*
X4449994Y2030060D01*
Y2020063D01*
X5723987Y4107981D02*
X5703993D01*
X5713990D01*
Y4057997D01*
X5703993Y4048000D01*
X5693997D01*
X5684000Y4057997D01*
X5743981Y4038003D02*
X5783968D01*
X5813958Y4048000D02*
X5833952D01*
X5843948Y4057997D01*
Y4077990D01*
X5833952Y4087987D01*
X5813958D01*
X5803961Y4077990D01*
Y4057997D01*
X5813958Y4048000D01*
X5863942Y4087987D02*
Y4057997D01*
X5873939Y4048000D01*
X5903929D01*
Y4087987D01*
X5933919Y4097984D02*
Y4087987D01*
X5923922D01*
X5943916D01*
X5933919D01*
Y4057997D01*
X5943916Y4048000D01*
X5801496Y2483036D02*
X5781502D01*
X5791499D01*
Y2433052D01*
X5781502Y2423055D01*
X5771506D01*
X5761509Y2433052D01*
X5821489Y2413058D02*
X5861476D01*
X5881470Y2423055D02*
Y2463042D01*
X5911460D01*
X5921457Y2453045D01*
Y2423055D01*
X5951447D02*
Y2473039D01*
Y2453045D01*
X5941451D01*
X5961444D01*
X5951447D01*
Y2473039D01*
X5961444Y2483036D01*
X5448987Y4107981D02*
X5428993D01*
X5438990D01*
Y4057997D01*
X5428993Y4048000D01*
X5418997D01*
X5409000Y4057997D01*
X5468981Y4038003D02*
X5508968D01*
X5528961Y4048000D02*
X5548955D01*
X5538958D01*
Y4087987D01*
X5528961D01*
X5578945Y4048000D02*
Y4087987D01*
X5608935D01*
X5618932Y4077990D01*
Y4048000D01*
X4567987Y2658981D02*
X4547993D01*
X4557990D01*
Y2608997D01*
X4547993Y2599000D01*
X4537997D01*
X4528000Y2608997D01*
X4587981Y2589003D02*
X4627968D01*
X4677952Y2599000D02*
X4657958D01*
X4647961Y2608997D01*
Y2628990D01*
X4657958Y2638987D01*
X4677952D01*
X4687948Y2628990D01*
Y2618994D01*
X4647961D01*
X4747929Y2638987D02*
X4717939D01*
X4707942Y2628990D01*
Y2608997D01*
X4717939Y2599000D01*
X4747929D01*
X4787916Y2579006D02*
X4797913D01*
X4807909Y2589003D01*
Y2638987D01*
X4777919D01*
X4767922Y2628990D01*
Y2608997D01*
X4777919Y2599000D01*
X4807909D01*
X5120635Y2500636D02*
X5100641D01*
X5110638D01*
Y2450653D01*
X5100641Y2440656D01*
X5090645D01*
X5080648Y2450653D01*
X5140628Y2430659D02*
X5180615D01*
X5240596Y2500636D02*
Y2440656D01*
X5210606D01*
X5200609Y2450653D01*
Y2470646D01*
X5210606Y2480643D01*
X5240596D01*
X5260590D02*
Y2440656D01*
Y2460649D01*
X5270586Y2470646D01*
X5280583Y2480643D01*
X5290580D01*
X5320570Y2440656D02*
X5340564D01*
X5330567D01*
Y2500636D01*
X5320570D01*
X5011895Y2266392D02*
X4991902D01*
X5001898D01*
Y2216409D01*
X4991902Y2206412D01*
X4981905D01*
X4971908Y2216409D01*
X5031889Y2196415D02*
X5071876D01*
X5131856Y2266392D02*
Y2206412D01*
X5101866D01*
X5091869Y2216409D01*
Y2236402D01*
X5101866Y2246399D01*
X5131856D01*
X5151850D02*
Y2206412D01*
Y2226405D01*
X5161847Y2236402D01*
X5171843Y2246399D01*
X5181840D01*
X5211831Y2206412D02*
X5231824D01*
X5221827D01*
Y2266392D01*
X5211831D01*
X5261814Y2196415D02*
X5301801D01*
X5321795Y2246399D02*
Y2206412D01*
Y2226405D01*
X5331792Y2236402D01*
X5341788Y2246399D01*
X5351785D01*
X5411766Y2206412D02*
X5391772D01*
X5381775Y2216409D01*
Y2236402D01*
X5391772Y2246399D01*
X5411766D01*
X5421763Y2236402D01*
Y2226405D01*
X5381775D01*
X5451753Y2206412D02*
Y2256396D01*
Y2236402D01*
X5441756D01*
X5461750D01*
X5451753D01*
Y2256396D01*
X5461750Y2266392D01*
X5522325Y2493034D02*
X5502332D01*
X5512328D01*
Y2443050D01*
X5502332Y2433053D01*
X5492335D01*
X5482338Y2443050D01*
X5542319Y2423057D02*
X5582306D01*
X5602299Y2493034D02*
Y2433053D01*
X5632289D01*
X5642286Y2443050D01*
Y2453047D01*
Y2463044D01*
X5632289Y2473040D01*
X5602299D01*
X5662280Y2413060D02*
Y2473040D01*
X5692270D01*
X5702267Y2463044D01*
Y2443050D01*
X5692270Y2433053D01*
X5662280D01*
X4799800Y3519648D02*
X4819793D01*
X4809797D01*
Y3459667D01*
X4799800D01*
X4819793D01*
X4849784D02*
Y3499654D01*
X4869777Y3519648D01*
X4889771Y3499654D01*
Y3459667D01*
Y3489657D01*
X4849784D01*
X4909764Y3459667D02*
X4929758D01*
X4919761D01*
Y3519648D01*
X4909764Y3509651D01*
X5284148Y2803028D02*
X5274151Y2813024D01*
X5254158D01*
X5244161Y2803028D01*
Y2763041D01*
X5254158Y2753044D01*
X5274151D01*
X5284148Y2763041D01*
X5304142Y2753044D02*
X5324135D01*
X5314139D01*
Y2813024D01*
X5304142Y2803028D01*
X5354126Y2753044D02*
X5374119D01*
X5364122D01*
Y2813024D01*
X5354126Y2803028D01*
X5485987Y3049984D02*
X5475990Y3059981D01*
X5455997D01*
X5446000Y3049984D01*
Y3009997D01*
X5455997Y3000000D01*
X5475990D01*
X5485987Y3009997D01*
X5505981Y3000000D02*
X5525974D01*
X5515977D01*
Y3059981D01*
X5505981Y3049984D01*
X5555964D02*
X5565961Y3059981D01*
X5585955D01*
X5595952Y3049984D01*
Y3009997D01*
X5585955Y3000000D01*
X5565961D01*
X5555964Y3009997D01*
Y3049984D01*
X5103987D02*
X5093990Y3059981D01*
X5073997D01*
X5064000Y3049984D01*
Y3009997D01*
X5073997Y3000000D01*
X5093990D01*
X5103987Y3009997D01*
X5123981D02*
X5133977Y3000000D01*
X5153971D01*
X5163968Y3009997D01*
Y3049984D01*
X5153971Y3059981D01*
X5133977D01*
X5123981Y3049984D01*
Y3039987D01*
X5133977Y3029990D01*
X5163968D01*
X5195003Y3669994D02*
X5185007Y3679990D01*
X5165013D01*
X5155016Y3669994D01*
Y3630006D01*
X5165013Y3620010D01*
X5185007D01*
X5195003Y3630006D01*
X5214997Y3669994D02*
X5224994Y3679990D01*
X5244987D01*
X5254984Y3669994D01*
Y3659997D01*
X5244987Y3650000D01*
X5254984Y3640003D01*
Y3630006D01*
X5244987Y3620010D01*
X5224994D01*
X5214997Y3630006D01*
Y3640003D01*
X5224994Y3650000D01*
X5214997Y3659997D01*
Y3669994D01*
X5224994Y3650000D02*
X5244987D01*
X5807171Y3856470D02*
X5797174Y3866467D01*
X5777181D01*
X5767184Y3856470D01*
Y3816483D01*
X5777181Y3806486D01*
X5797174D01*
X5807171Y3816483D01*
X5827165Y3866467D02*
X5867152D01*
Y3856470D01*
X5827165Y3816483D01*
Y3806486D01*
X4718987Y3807984D02*
X4708990Y3817981D01*
X4688997D01*
X4679000Y3807984D01*
Y3767997D01*
X4688997Y3758000D01*
X4708990D01*
X4718987Y3767997D01*
X4778968Y3817981D02*
X4758974Y3807984D01*
X4738981Y3787990D01*
Y3767997D01*
X4748977Y3758000D01*
X4768971D01*
X4778968Y3767997D01*
Y3777994D01*
X4768971Y3787990D01*
X4738981D01*
X4504987Y3807984D02*
X4494990Y3817981D01*
X4474997D01*
X4465000Y3807984D01*
Y3767997D01*
X4474997Y3758000D01*
X4494990D01*
X4504987Y3767997D01*
X4564968Y3817981D02*
X4524981D01*
Y3787990D01*
X4544974Y3797987D01*
X4554971D01*
X4564968Y3787990D01*
Y3767997D01*
X4554971Y3758000D01*
X4534977D01*
X4524981Y3767997D01*
X4302987Y3807984D02*
X4292990Y3817981D01*
X4272997D01*
X4263000Y3807984D01*
Y3767997D01*
X4272997Y3758000D01*
X4292990D01*
X4302987Y3767997D01*
X4352971Y3758000D02*
Y3817981D01*
X4322981Y3787990D01*
X4362968D01*
X4718987Y4087984D02*
X4708990Y4097981D01*
X4688997D01*
X4679000Y4087984D01*
Y4047997D01*
X4688997Y4038000D01*
X4708990D01*
X4718987Y4047997D01*
X4738981Y4087984D02*
X4748977Y4097981D01*
X4768971D01*
X4778968Y4087984D01*
Y4077987D01*
X4768971Y4067990D01*
X4758974D01*
X4768971D01*
X4778968Y4057994D01*
Y4047997D01*
X4768971Y4038000D01*
X4748977D01*
X4738981Y4047997D01*
X4504987Y4087984D02*
X4494990Y4097981D01*
X4474997D01*
X4465000Y4087984D01*
Y4047997D01*
X4474997Y4038000D01*
X4494990D01*
X4504987Y4047997D01*
X4564968Y4038000D02*
X4524981D01*
X4564968Y4077987D01*
Y4087984D01*
X4554971Y4097981D01*
X4534977D01*
X4524981Y4087984D01*
X4302987D02*
X4292990Y4097981D01*
X4272997D01*
X4263000Y4087984D01*
Y4047997D01*
X4272997Y4038000D01*
X4292990D01*
X4302987Y4047997D01*
X4322981Y4038000D02*
X4342974D01*
X4332977D01*
Y4097981D01*
X4322981Y4087984D01*
X3462680Y3043833D02*
Y2983852D01*
X3492671D01*
X3502667Y2993849D01*
Y3003846D01*
X3492671Y3013842D01*
X3462680D01*
X3492671D01*
X3502667Y3023839D01*
Y3033836D01*
X3492671Y3043833D01*
X3462680D01*
X3522661D02*
X3562648D01*
X3542654D01*
Y2983852D01*
X3622629D02*
X3582642D01*
X3622629Y3023839D01*
Y3033836D01*
X3612632Y3043833D01*
X3592638D01*
X3582642Y3033836D01*
X3467571Y4108583D02*
Y4048602D01*
X3497561D01*
X3507558Y4058599D01*
Y4068596D01*
X3497561Y4078593D01*
X3467571D01*
X3497561D01*
X3507558Y4088590D01*
Y4098586D01*
X3497561Y4108583D01*
X3467571D01*
X3527552D02*
X3567539D01*
X3547545D01*
Y4048602D01*
X3587532D02*
X3607526D01*
X3597529D01*
Y4108583D01*
X3587532Y4098586D01*
D31*
X4813390Y3226836D02*
X4921390D01*
X4879390Y3422836D02*
X4921390D01*
X4855390D02*
X4879390D01*
X4813390D02*
X4855390D01*
%TF.MD5,d09e6af48fd11240ae6c2d878583268a*%
M02*
