%TF.GenerationSoftware,Altium Limited,DefaultClient, ()*%
G04 Layer_Physical_Order=2*
G04 Layer_Color=16711680*
%FSLAX26Y26*%
%MOIN*%
%TF.SameCoordinates,28E0FE5E-BC46-41F2-A807-9729679EB8C0*%
%TF.FilePolarity,Positive*%
%TF.FileFunction,Copper,L2,Bot,Signal*%
%TF.Part,Single*%
G01*
G75*
%TA.AperFunction,Conductor*%
%ADD19C,0.010000*%
%TA.AperFunction,ComponentPad*%
%ADD20C,0.066929*%
%TA.AperFunction,ViaPad*%
%ADD21C,0.060000*%
%TA.AperFunction,ComponentPad*%
%ADD22R,0.053937X0.053937*%
%ADD23C,0.053937*%
%ADD24C,0.118110*%
%ADD25R,0.053937X0.053937*%
%TA.AperFunction,ViaPad*%
%ADD26C,0.050000*%
D19*
X5261294Y2342505D02*
G03*
X5251070Y2378214I-41294J7495D01*
G01*
D02*
G03*
X5249701Y2379652I-31070J-28214D01*
G01*
X5111000Y3963000D02*
X5145000Y3997000D01*
X5105000Y3855000D02*
X5111000Y3861000D01*
Y3963000D01*
X5249700Y2379652D02*
Y2400300D01*
X4880000Y2770000D02*
X5249700Y2400300D01*
X5220000Y2115000D02*
X5261294Y2342505D01*
X4455000Y3115000D02*
X5220000Y2350000D01*
X4455000Y3115000D02*
Y3372000D01*
X5120000Y2350000D02*
Y2404000D01*
X4486522Y3037478D02*
X5120000Y2404000D01*
X4381000Y2392000D02*
X4525544Y2247456D01*
X4987544D02*
X5120000Y2115000D01*
X4525544Y2247456D02*
X4987544D01*
X4577000Y3113000D02*
X4763000D01*
X4495000Y3195000D02*
X4577000Y3113000D01*
X4455000Y3372000D02*
X4463032Y3380032D01*
X5550000Y3165000D02*
Y3740234D01*
X5037836Y3349836D02*
X5038418Y3350418D01*
X3765000Y2945196D02*
X4410000D01*
X5092290Y3580000D02*
X5459692Y3947402D01*
X4810000Y3580000D02*
X5092290D01*
X4415000Y3001000D02*
X4504000Y2912000D01*
X4415000Y3001000D02*
Y3122346D01*
X5550000Y3740234D02*
X5757168Y3947402D01*
X4723000Y3153000D02*
Y3751000D01*
X5018000Y4046000D01*
X5461094D01*
X5559692Y3947402D01*
X4707000Y3019000D02*
X5037836Y3349836D01*
X5039000D01*
X5148000Y3460000D02*
X5235000D01*
X5038418Y3350418D02*
X5148000Y3460000D01*
X3765000Y2094804D02*
X4062196Y2392000D01*
X4381000D01*
X5039000Y2778834D02*
Y3234000D01*
Y2778834D02*
X5594788Y2223046D01*
X4763000Y3113000D02*
X4992000Y3342000D01*
Y3439000D01*
X5145000Y3997000D02*
X5480000D01*
X5510000Y3967000D01*
Y2503000D02*
Y3967000D01*
Y2503000D02*
X5618000Y2395000D01*
X5880000D01*
X5910000Y2365000D01*
Y2265768D02*
Y2365000D01*
X5867278Y2223046D02*
X5910000Y2265768D01*
X5594788Y2323046D02*
X5867278D01*
D20*
X4730000Y2105000D02*
D03*
Y2380590D02*
D03*
D21*
Y2105000D02*
D03*
Y2380590D02*
D03*
D22*
X4292186Y2110000D02*
D03*
X5594788Y2123046D02*
D03*
X5867278D02*
D03*
D23*
X4292186Y2210000D02*
D03*
Y2310000D02*
D03*
X5220000Y2350000D02*
D03*
X5120000D02*
D03*
X5594788Y2223046D02*
D03*
Y2323046D02*
D03*
X5867278Y2223046D02*
D03*
Y2323046D02*
D03*
X5220000Y2115000D02*
D03*
X5120000D02*
D03*
X5459692Y3947402D02*
D03*
X5857168D02*
D03*
D24*
X3763480Y3151326D02*
D03*
Y4001720D02*
D03*
X3765000Y2094804D02*
D03*
Y2945196D02*
D03*
D25*
X5320000Y2350000D02*
D03*
Y2115000D02*
D03*
X5559692Y3947402D02*
D03*
X5757168D02*
D03*
D26*
X5105000Y3855000D02*
D03*
X4880000Y2770000D02*
D03*
X4495000Y3195000D02*
D03*
X5550000Y3165000D02*
D03*
X4410000Y2945196D02*
D03*
X4810000Y3580000D02*
D03*
X4504000Y2912000D02*
D03*
X4415000Y3122346D02*
D03*
X4723000Y3153000D02*
D03*
X4707000Y3019000D02*
D03*
X5235000Y3460000D02*
D03*
X5039000Y3234000D02*
D03*
X4992000Y3439000D02*
D03*
X5117000Y3969000D02*
D03*
%TF.MD5,b0bacbe46a2b0c24ef38df08e3fcae71*%
M02*
