M48
;Layer_Color=9474304
;FILE_FORMAT=2:5
INCH,LZ
;TYPE=PLATED
T01F00S00C0.02800
T02F00S00C0.03000
T03F00S00C0.04016
T04F00S00C0.07874
;TYPE=NON_PLATED
T05F00S00C0.06693
%
T01
X0488Y0277
X04707Y03019
X04504Y02912
X0441Y029452
X04415Y0312235
X04495Y03195
X04723Y03153
X05039Y03234
X04992Y03439
X05235Y0346
X05105Y03855
X05117Y03969
X0481Y0358
X0555Y03165
T02
X0473Y02105
Y0238059
T03
X0512Y02115
X0522
X0532
Y0235
X0522
X0512
X0559479Y0232305
Y0222305
Y0212305
X0586728
Y0222305
Y0232305
X0429219Y0231
Y0221
Y0211
X0545969Y039474
X0555969
X0575717
X0585717
T04
X03765Y020948
Y029452
X0376348Y0315133
Y0400172
T05
X0473Y02105
Y0238059
M30
